<?xml version="1.0" encoding="UTF-8"?>
<svg version="1.1" xmlns="http://www.w3.org/2000/svg" width="1080" height="1080">
<path d="M0 0 C356.4 0 712.8 0 1080 0 C1080 356.4 1080 712.8 1080 1080 C723.6 1080 367.2 1080 0 1080 C0 723.6 0 367.2 0 0 Z " fill="#FEFEFE" transform="translate(0,0)"/>
<path d="M0 0 C9.01556579 -0.32940027 16.66314771 0.96464477 25.140625 4.19140625 C25.99269531 4.49949219 26.84476563 4.80757813 27.72265625 5.125 C29.53777318 5.7893773 31.34116032 6.48573383 33.140625 7.19140625 C33.140625 7.85140625 33.140625 8.51140625 33.140625 9.19140625 C33.71296875 9.29324219 34.2853125 9.39507812 34.875 9.5 C43.96050753 12.27264626 53.29109082 22.83248971 57.984375 30.85546875 C60.43446502 35.80531278 62.35045639 40.97165146 64.140625 46.19140625 C64.50929688 47.25230469 64.87796875 48.31320312 65.2578125 49.40625 C68.53340759 63.45072629 66.84215042 78.09517514 61.140625 91.19140625 C60.47163664 92.85714236 59.80408325 94.5234598 59.140625 96.19140625 C58.480625 96.19140625 57.820625 96.19140625 57.140625 96.19140625 C56.88023437 96.9184375 56.61984375 97.64546875 56.3515625 98.39453125 C52.21967101 107.93786771 43.76012138 114.78575066 35.140625 120.19140625 C32.78125 120.9375 32.78125 120.9375 31.140625 121.19140625 C31.140625 121.85140625 31.140625 122.51140625 31.140625 123.19140625 C17.14571662 131.35510281 -1.50589305 131.02389868 -16.859375 127.19140625 C-19.61970432 126.32678048 -22.18520913 125.31737083 -24.859375 124.19140625 C-25.64699219 123.90652344 -26.43460938 123.62164063 -27.24609375 123.328125 C-35.23004583 119.85528486 -42.03041247 113.55027447 -47.859375 107.19140625 C-48.36984375 106.69640625 -48.8803125 106.20140625 -49.40625 105.69140625 C-53.96656698 100.99004854 -56.15015457 95.38390747 -58.5625 89.3984375 C-59.71044376 86.34759873 -59.71044376 86.34759873 -60.96875 84.265625 C-66.40963436 71.59409168 -63.48717167 52.2350285 -59.015625 39.85546875 C-53.33906006 25.90873593 -43.83118447 14.8394103 -30.859375 7.19140625 C-29.539375 7.19140625 -28.219375 7.19140625 -26.859375 7.19140625 C-26.859375 6.53140625 -26.859375 5.87140625 -26.859375 5.19140625 C-17.74101328 1.3322571 -9.78744328 0.48540964 0 0 Z " fill="#FCFCFC" transform="translate(736.859375,489.80859375)"/>
<path d="M0 0 C5.44023746 -0.07507759 10.88016255 -0.12903262 16.32080078 -0.16479492 C18.16525537 -0.17972913 20.00967543 -0.20008395 21.85400391 -0.22631836 C38.62585192 -0.45862804 53.82750657 -0.16089946 66.94140625 11.765625 C73.11484965 18.37046565 73.53403878 25.81207745 73.3671875 34.5625 C72.45529941 43.09932472 67.52279332 47.94785985 61.16015625 53.26953125 C60.44730469 53.84058594 59.73445313 54.41164063 59 55 C57.989375 55.825 56.97875 56.65 55.9375 57.5 C55.298125 57.995 54.65875 58.49 54 59 C55.216875 59.33 56.43375 59.66 57.6875 60 C68.5833095 63.66636244 78.64201603 70.18433414 84.3046875 80.33984375 C88.01876239 88.44677274 88.14523569 96.15788398 85.5 104.625 C81.78718538 113.59444563 75.98241061 118.85954865 67.625 123.4375 C67.02518311 123.7677417 66.42536621 124.0979834 65.80737305 124.43823242 C57.01741552 128.91701996 47.78278725 129.29136731 38.0859375 129.1953125 C36.44245834 129.19106766 36.44245834 129.19106766 34.76577759 129.18673706 C31.30206903 129.17563513 27.83862903 129.15054939 24.375 129.125 C22.01172251 129.11495729 19.64844093 129.10583371 17.28515625 129.09765625 C11.52334748 129.07572861 5.76169294 129.04235197 0 129 C-0.10192421 122.32899108 -0.17168442 115.65818507 -0.21972656 108.98657227 C-0.23976707 106.71989437 -0.26700711 104.45326768 -0.30175781 102.18676758 C-0.35060868 98.91735144 -0.37304512 95.64862243 -0.390625 92.37890625 C-0.41127014 91.37541641 -0.43191528 90.37192657 -0.45318604 89.33802795 C-0.45606892 80.17463557 2.202445 73.27407886 8.41796875 66.5078125 C11.61418902 63.46153836 14.41940707 61 19 61 C19 60.34 19 59.68 19 59 C18.01 59 17.02 59 16 59 C16 58.34 16 57.68 16 57 C15.12005371 56.77852295 14.24010742 56.5570459 13.33349609 56.32885742 C7.53840116 54.01871375 3.94606677 49.50595007 0.91711426 44.18804932 C-2.17230382 36.817322 -0.9745057 27.98675267 -0.625 20.1875 C-0.57473464 18.22342177 -0.52912581 16.2592186 -0.48828125 14.29492188 C-0.37913236 9.52681058 -0.20720748 4.76481572 0 0 Z " fill="#151515" transform="translate(66,490)"/>
<path d="M0 0 C5.81253257 -0.10032918 11.62454003 -0.17214365 17.43774414 -0.21972656 C19.40723471 -0.2396026 21.37666821 -0.26671314 23.34594727 -0.30175781 C38.91402683 -0.57147231 53.3368011 -0.15593715 67 8 C67.70125 8.144375 68.4025 8.28875 69.125 8.4375 C72.27888803 9.38366641 73.83474765 11.57697951 76 14 C76.76570312 14.85271484 76.76570312 14.85271484 77.546875 15.72265625 C84.11019656 23.63438298 85.61644096 32.61334254 85.3515625 42.71484375 C84.64028644 49.36132334 82.96062778 55.54921527 78.75 60.8125 C77.8425 61.534375 76.935 62.25625 76 63 C74.68614754 64.18600346 73.37375669 65.37362726 72.0625 66.5625 C65.47554826 72.22777006 58.81735688 76.64383529 49.9375 77.1875 C48.9784375 77.0946875 48.9784375 77.0946875 48 77 C49.0828125 78.0828125 49.0828125 78.0828125 50.1875 79.1875 C51.115625 80.115625 52.04375 81.04375 53 82 C53.763125 82.70125 54.52625 83.4025 55.3125 84.125 C60.85567356 90.0549066 65.47893622 96.54513192 68.8828125 103.91015625 C70.86212746 107.61272094 73.4623624 110.88190742 75.9609375 114.24609375 C77.85367265 116.80237399 79.70044409 119.37742444 81.5 122 C81.9846875 122.70125 82.469375 123.4025 82.96875 124.125 C84 126 84 126 84 129 C78.35667357 129.94273667 72.5320251 130.87805422 67 129 C62.68497242 125.36071497 60.38662539 119.99331286 57.99169922 114.98779297 C56.68212427 112.36283992 55.07275086 110.01282973 53.375 107.625 C51 104.22651934 51 104.22651934 51 102 C50.34 102 49.68 102 49 102 C48.67 100.68 48.34 99.36 48 98 C47.34 98 46.68 98 46 98 C41 88 41 88 39.9921875 85.7421875 C38.55648977 83.22123794 36.66840796 82.93394279 34 82 C33.01 81.01 33.01 81.01 32 80 C25.53278289 79.46990024 22.31901107 80.27366948 17.25 84.4375 C14.99269496 87.2591313 14.87454677 90.51994201 14.79467773 94.03417969 C14.77473251 94.81468689 14.75478729 95.59519409 14.73423767 96.39935303 C14.70916893 97.6480014 14.70916893 97.6480014 14.68359375 98.921875 C14.66281265 99.78186096 14.64203156 100.64184692 14.62062073 101.52789307 C14.55536261 104.26851598 14.49635083 107.00923275 14.4375 109.75 C14.39429219 111.6106867 14.35067718 113.47136398 14.30664062 115.33203125 C14.19970558 119.88792523 14.09837149 124.4439134 14 129 C9.05 129 4.1 129 -1 129 C-1.09264509 125.05228995 -1.17201964 121.10740465 -1.21972656 117.15917969 C-1.24935477 115.16835522 -1.30022326 113.17788292 -1.3515625 111.1875 C-1.44974368 101.46756366 -0.44003808 92.89685842 6.5 85.5625 C7.35078125 84.63630859 7.35078125 84.63630859 8.21875 83.69140625 C11.3736175 80.69566583 13.79061665 79.01605805 18 78 C18.33 77.34 18.66 76.68 19 76 C17.6696875 75.62875 17.6696875 75.62875 16.3125 75.25 C9.15599626 72.54943255 4.15528685 66.57362439 0.93093872 59.73139954 C-0.09797955 56.71252534 -0.24116917 54.38364838 -0.22705078 51.19995117 C-0.22689972 50.05914597 -0.22674866 48.91834076 -0.22659302 47.7429657 C-0.21627045 46.52196671 -0.20594788 45.30096771 -0.1953125 44.04296875 C-0.1924826 42.78486893 -0.18965271 41.5267691 -0.18673706 40.23054504 C-0.17745121 36.89812618 -0.15950476 33.56598453 -0.1373291 30.23364258 C-0.11681017 26.82831203 -0.10772246 23.42295277 -0.09765625 20.01757812 C-0.0756164 13.34497582 -0.0421539 6.67250391 0 0 Z " fill="#101010" transform="translate(825,490)"/>
<path d="M0 0 C5.28 0 10.56 0 16 0 C18.02213556 3.41671181 19.85383674 6.65101468 21.390625 10.3203125 C22.94262649 14.00637735 24.89041936 17.37450468 26.9375 20.8125 C29.68629514 25.51393025 31.98979092 30.16338616 33.890625 35.265625 C35.33058841 38.81483059 37.02472542 42.20716521 38.75 45.625 C39.09184326 46.30224121 39.43368652 46.97948242 39.78588867 47.67724609 C40.85429977 49.7863495 41.92648178 51.89349188 43 54 C44.44238145 56.83089004 45.87903675 59.66458556 47.3125 62.5 C47.63766602 63.13373535 47.96283203 63.7674707 48.29785156 64.42041016 C54 75.70332173 54 75.70332173 54 82 C54.66 82 55.32 82 56 82 C60.07869745 87.54430183 62.73683109 93.5499686 65 100 C65.99 101.485 65.99 101.485 67 103 C67 103.99 67 104.98 67 106 C67.99 106 68.98 106 70 106 C70.061875 105.05125 70.12375 104.1025 70.1875 103.125 C70.7897874 98.91735333 72.58294481 95.70424565 74.5546875 91.98046875 C76.22898435 88.52779714 77.52480662 84.98332377 78.8125 81.375 C81.13701376 74.92260217 83.95542535 68.89275657 87.09985352 62.80371094 C90.22145715 56.70639407 92.65237859 50.43265218 95 44 C97.07190074 38.58533004 99.27482062 33.35216903 101.9296875 28.19921875 C104.18291246 23.5694171 106.04657524 18.76188392 108 14 C108.98893624 11.6617152 109.99438125 9.3312071 111 7 C111.56281301 5.68763419 112.1253156 4.37513521 112.6875 3.0625 C113.120625 2.051875 113.55375 1.04125 114 0 C118.29 0 122.58 0 127 0 C127 42.57 127 85.14 127 129 C122.38 129 117.76 129 113 129 C112.67 92.04 112.34 55.08 112 17 C109.5498482 21.90030359 107.41734253 26.26142362 105.5625 31.3125 C104.00437023 35.46591953 102.34354743 39.49496169 100.4375 43.5 C98.01330825 48.66855977 96.41389517 53.94974087 94.89453125 59.4453125 C94 62 94 62 92 63 C91.13975554 64.99260707 90.36105939 67.02075564 89.625 69.0625 C87.95695482 73.55301458 86.18207759 77.8083075 83.96484375 82.046875 C82.44934637 85.11468346 81.24949774 88.29956853 80.00390625 91.484375 C79.03483476 93.91270977 78.00494268 96.30097417 76.9375 98.6875 C76.61265625 99.4196875 76.2878125 100.151875 75.953125 100.90625 C75.34118189 102.25051848 74.70740995 103.58518009 74.046875 104.90625 C72.0616913 109.0209944 71.70237388 111.60803469 73 116 C73.99 117.485 73.99 117.485 75 119 C75 119.99 75 120.98 75 122 C73.39125 122.37125 73.39125 122.37125 71.75 122.75 C67.95411278 124.01529574 66.60376183 125.1069313 64 128 C63.34 128 62.68 128 62 128 C55.15729873 114.66057675 55.15729873 114.66057675 53.0625 109.125 C48.41554653 97.01898818 42.11814577 84.39287723 34.75 73.75 C32.73560035 70.58451484 31.98330567 67.60545414 31 64 C30.0126546 62.32580562 29.01187895 60.65948148 28 59 C27.608125 57.88625 27.21625 56.7725 26.8125 55.625 C25.30916375 51.40286414 23.20660538 47.54725096 21.0625 43.625 C18.74649711 39.38125915 16.55487185 35.20766961 14.8125 30.6875 C12.86615606 25.65385189 10.41353964 20.82707929 8 16 C7.67 53.29 7.34 90.58 7 129 C5.68 129 4.36 129 3 129 C2.99668985 128.36885631 2.99337971 127.73771261 2.98996925 127.08744335 C2.9087946 111.73948213 2.81672049 96.39163103 2.71247292 81.04381084 C2.66232345 73.62175755 2.61588086 66.19971543 2.578125 58.77758789 C2.5452126 52.30943787 2.50538565 45.84137399 2.45720994 39.37331897 C2.43193736 35.94764591 2.41015841 32.52203004 2.39665604 29.09628868 C2.38146371 25.27461922 2.35083596 21.45315946 2.31884766 17.6315918 C2.31668747 16.49223679 2.31452728 15.35288177 2.31230164 14.17900085 C2.30113815 13.13993591 2.28997467 12.10087097 2.2784729 11.03031921 C2.27294214 10.1260403 2.26741138 9.22176138 2.26171303 8.29008007 C2.1448657 5.72260491 2.1448657 5.72260491 0 3 C0 2.01 0 1.02 0 0 Z " fill="#111111" transform="translate(269,490)"/>
<path d="M0 0 C9.01556579 -0.32940027 16.66314771 0.96464477 25.140625 4.19140625 C25.99269531 4.49949219 26.84476563 4.80757813 27.72265625 5.125 C29.53777318 5.7893773 31.34116032 6.48573383 33.140625 7.19140625 C33.140625 7.85140625 33.140625 8.51140625 33.140625 9.19140625 C33.71296875 9.29324219 34.2853125 9.39507812 34.875 9.5 C43.96050753 12.27264626 53.29109082 22.83248971 57.984375 30.85546875 C60.43446502 35.80531278 62.35045639 40.97165146 64.140625 46.19140625 C64.50929688 47.25230469 64.87796875 48.31320312 65.2578125 49.40625 C68.53340759 63.45072629 66.84215042 78.09517514 61.140625 91.19140625 C60.47163664 92.85714236 59.80408325 94.5234598 59.140625 96.19140625 C58.480625 96.19140625 57.820625 96.19140625 57.140625 96.19140625 C56.88023437 96.9184375 56.61984375 97.64546875 56.3515625 98.39453125 C52.21967101 107.93786771 43.76012138 114.78575066 35.140625 120.19140625 C32.78125 120.9375 32.78125 120.9375 31.140625 121.19140625 C31.140625 121.85140625 31.140625 122.51140625 31.140625 123.19140625 C17.14571662 131.35510281 -1.50589305 131.02389868 -16.859375 127.19140625 C-19.61970432 126.32678048 -22.18520913 125.31737083 -24.859375 124.19140625 C-25.64699219 123.90652344 -26.43460938 123.62164063 -27.24609375 123.328125 C-35.23004583 119.85528486 -42.03041247 113.55027447 -47.859375 107.19140625 C-48.36984375 106.69640625 -48.8803125 106.20140625 -49.40625 105.69140625 C-53.96656698 100.99004854 -56.15015457 95.38390747 -58.5625 89.3984375 C-59.71044376 86.34759873 -59.71044376 86.34759873 -60.96875 84.265625 C-66.40963436 71.59409168 -63.48717167 52.2350285 -59.015625 39.85546875 C-53.33906006 25.90873593 -43.83118447 14.8394103 -30.859375 7.19140625 C-29.539375 7.19140625 -28.219375 7.19140625 -26.859375 7.19140625 C-26.859375 6.53140625 -26.859375 5.87140625 -26.859375 5.19140625 C-17.74101328 1.3322571 -9.78744328 0.48540964 0 0 Z M-34.859375 20.19140625 C-37.97424243 24.21562496 -40.17809431 28.38774713 -41.859375 33.19140625 C-42.09398437 33.79726563 -42.32859375 34.403125 -42.5703125 35.02734375 C-43.36292367 37.07557658 -44.14111451 39.11563342 -44.859375 41.19140625 C-45.21386719 42.18914063 -45.56835938 43.186875 -45.93359375 44.21484375 C-47.37388921 49.37211948 -47.18840288 54.62603946 -47.171875 59.94140625 C-47.18798828 60.96234375 -47.20410156 61.98328125 -47.22070312 63.03515625 C-47.2252663 70.22671875 -45.98305288 76.34898098 -43.859375 83.19140625 C-43.58996094 84.34511719 -43.32054687 85.49882813 -43.04296875 86.6875 C-40.71962067 95.84708693 -36.13789657 101.39617405 -29.859375 108.19140625 C-28.67020846 109.64838096 -27.48249417 111.1065434 -26.296875 112.56640625 C-20.51971241 119.08944664 -12.45042454 124.33042325 -3.67456055 125.47680664 C-1.41485662 125.59199357 0.81596743 125.60788276 3.078125 125.56640625 C3.86936768 125.55770508 4.66061035 125.54900391 5.47583008 125.54003906 C11.13018795 125.39779107 16.03295465 124.76178895 21.140625 122.19140625 C22.05134766 121.75634766 22.05134766 121.75634766 22.98046875 121.3125 C31.70304592 116.7508021 38.21038171 109.66886355 43.140625 101.19140625 C43.140625 99.87140625 43.140625 98.55140625 43.140625 97.19140625 C43.800625 97.19140625 44.460625 97.19140625 45.140625 97.19140625 C46.21220965 94.53795855 47.20197704 91.89319025 48.140625 89.19140625 C48.42679688 88.37800781 48.71296875 87.56460938 49.0078125 86.7265625 C53.10598627 73.12452862 53.04673855 57.18057626 47.140625 44.19140625 C46.73070312 43.18787109 46.73070312 43.18787109 46.3125 42.1640625 C45.62436922 40.49131906 44.8842182 38.84024334 44.140625 37.19140625 C43.74875 36.11890625 43.356875 35.04640625 42.953125 33.94140625 C39.57800395 26.08980886 33.92792187 19.2818789 27.140625 14.19140625 C26.521875 13.51078125 25.903125 12.83015625 25.265625 12.12890625 C16.60496427 4.23242147 4.75474379 3.52575414 -6.3828125 3.83203125 C-18.62158062 4.56255041 -26.88105783 11.55932713 -34.859375 20.19140625 Z " fill="#0E0E0E" transform="translate(736.859375,489.80859375)"/>
<path d="M0 0 C4.47904099 -0.087842 8.95785724 -0.14067447 13.4375 -0.1875 C14.69755859 -0.21263672 15.95761719 -0.23777344 17.25585938 -0.26367188 C29.42290516 -0.35897511 38.41039808 2.29566038 48 10 C54.07177489 16.95472224 56.38337785 24.05539598 56.3125 33.25 C56.30512817 34.37716431 56.30512817 34.37716431 56.29760742 35.52709961 C56.10649128 44.62324765 53.95600409 52.91161983 48 60 C38.62089786 68.63362822 29.97724585 71.15071474 17.5 71.5 C16.67113281 71.55414062 15.84226562 71.60828125 14.98828125 71.6640625 C11.44530286 71.74292052 9.00089931 71.78221542 6.140625 69.546875 C1.82854732 64.64868967 -0.25477168 60.63566079 -0.22705078 54.03808594 C-0.22689972 52.83714294 -0.22674866 51.63619995 -0.22659302 50.39886475 C-0.21627045 49.10708313 -0.20594788 47.81530151 -0.1953125 46.484375 C-0.19158034 45.14487927 -0.18873432 43.80538079 -0.18673706 42.46588135 C-0.17911657 38.94771735 -0.15948187 35.4297196 -0.1373291 31.91162109 C-0.11683643 28.31870777 -0.10772804 24.72576747 -0.09765625 21.1328125 C-0.07623434 14.08847383 -0.04211765 7.04424779 0 0 Z " fill="#F9F9F9" transform="translate(839,494)"/>
<path d="M0 0 C0.99064453 -0.00708984 1.98128906 -0.01417969 3.00195312 -0.02148438 C11.19222121 0.0483343 19.67762382 1.04642834 26.25 6.375 C27.17619141 7.10009766 27.17619141 7.10009766 28.12109375 7.83984375 C33.72345725 13.13168363 36.34509889 20.15468329 37.171875 27.73046875 C37.42342451 38.45905524 34.90185744 47.21703159 27.8125 55.4375 C23.5309178 59.02685034 19.45562374 61.01426572 13.8125 61.4375 C13.8125 62.0975 13.8125 62.7575 13.8125 63.4375 C2.5925 63.4375 -8.6275 63.4375 -20.1875 63.4375 C-20.27939971 55.99872928 -20.35902227 48.56193328 -20.40722656 41.12304688 C-20.42732405 38.59335653 -20.45460668 36.06371254 -20.48925781 33.53417969 C-20.53785556 29.89506583 -20.56048812 26.256567 -20.578125 22.6171875 C-20.60909271 20.92467361 -20.60909271 20.92467361 -20.64068604 19.19796753 C-20.64247218 12.92748277 -20.3915607 9.20457405 -16.1875 4.4375 C-15.51074219 3.66277344 -14.83398438 2.88804687 -14.13671875 2.08984375 C-9.55396204 -0.47771398 -5.16052645 -0.10209082 0 0 Z " fill="#F9F9F9" transform="translate(100.1875,551.5625)"/>
<path d="M0 0 C4.95 0 9.9 0 15 0 C18 7.625 18 7.625 18 11 C18.66 11 19.32 11 20 11 C20.23074219 11.67804688 20.46148438 12.35609375 20.69921875 13.0546875 C22.4335036 18.00391147 24.276467 22.68255362 26.75 27.3125 C28.69464135 31.04121599 29.56389992 33.71436058 29 38 C29.66 38 30.32 38 31 38 C33.82912398 44.60963479 36.50351631 51.25884895 39 58 C43.4552145 70.09760857 43.4552145 70.09760857 48.9375 81.75 C51.04523145 85.82668223 52.63474824 90.08595081 54.25 94.375 C54.52062256 95.09010742 54.79124512 95.80521484 55.07006836 96.54199219 C57 101.74565972 57 101.74565972 57 104 C57.99 104 58.98 104 60 104 C60.08636719 103.41734375 60.17273438 102.8346875 60.26171875 102.234375 C61.49992084 95.00963622 63.99881152 88.66676219 67 82 C67.66 82 68.32 82 69 82 C69.10699219 81.15050781 69.21398437 80.30101562 69.32421875 79.42578125 C70.05734748 75.70928475 71.27840746 72.64794671 72.8125 69.1875 C73.08094727 68.57511475 73.34939453 67.96272949 73.62597656 67.33178711 C74.80161263 64.65703906 76.0026121 61.99427185 77.21484375 59.3359375 C79.21897156 54.93441906 80.80243963 50.69044476 82 46 C82.66 46 83.32 46 84 46 C84.09796875 45.38253906 84.1959375 44.76507812 84.296875 44.12890625 C85.55207455 37.01971572 87.82779014 31.10306307 91.1953125 24.7421875 C94.22012989 18.97791286 96.39605795 13.2101731 98.30053711 7.00146484 C99.8006519 2.1993481 99.8006519 2.1993481 102 0 C103.32 0 104.64 0 106 0 C105.37764466 4.00503965 104.08934322 7.17953183 102.3125 10.8125 C99.303201 17.17749213 96.80603883 23.64911988 94.37890625 30.25390625 C90.09619212 41.88881518 90.09619212 41.88881518 87.3125 47.25 C85.90774602 50.19329406 85.38393093 52.77498018 85 56 C84.34 56 83.68 56 83 56 C82.72671875 56.83273437 82.4534375 57.66546875 82.171875 58.5234375 C78.81886262 68.47070755 75.15295911 78.00820078 70.30859375 87.33203125 C68.79246452 90.42312458 67.70973691 93.50383302 66.7265625 96.796875 C65.91469206 99.25867568 64.83729774 101.52288653 63.75 103.875 C61.45646261 109.40034008 61.9868988 114.20770403 63 120 C60.525 120.495 60.525 120.495 58 121 C58 121.66 58 122.32 58 123 C56.04072937 124.7143618 54.04119788 126.38405168 52 128 C51.22377806 126.5027814 50.4543539 125.00203832 49.6875 123.5 C49.25824219 122.6646875 48.82898438 121.829375 48.38671875 120.96875 C47.03426787 118.07336219 45.9039166 115.1699379 44.80541992 112.17236328 C43.96161442 109.89646714 43.07451819 107.64145717 42.17578125 105.38671875 C41.86962891 104.61392578 41.56347656 103.84113281 41.24804688 103.04492188 C40.61605662 101.45241199 39.98054836 99.86129441 39.34179688 98.27148438 C39.03951172 97.50513672 38.73722656 96.73878906 38.42578125 95.94921875 C38.15161377 95.26174561 37.87744629 94.57427246 37.5949707 93.8659668 C37 92 37 92 37 89 C36.34 89 35.68 89 35 89 C34.60167969 87.62714844 34.60167969 87.62714844 34.1953125 86.2265625 C33.84210937 85.03804687 33.48890625 83.84953125 33.125 82.625 C32.77695312 81.44164062 32.42890625 80.25828125 32.0703125 79.0390625 C31.22312581 75.93508442 31.22312581 75.93508442 29 74 C28.17225369 71.91756454 27.41168953 69.80817228 26.6875 67.6875 C26.24464842 66.41496071 25.80060997 65.14283392 25.35546875 63.87109375 C25.13036621 63.2251123 24.90526367 62.57913086 24.67333984 61.91357422 C21.92473475 54.10227373 18.90959706 46.55206718 15.12109375 39.1875 C12.65139156 34.3685689 10.79784915 29.45101274 9.125 24.3125 C5.508114 13.21664198 5.508114 13.21664198 0 3 C0 2.01 0 1.02 0 0 Z " fill="#0B0B0B" transform="translate(562,490)"/>
<path d="M0 0 C2.62527189 -0.05382106 5.24944713 -0.09358313 7.875 -0.125 C8.62136719 -0.14175781 9.36773438 -0.15851563 10.13671875 -0.17578125 C12.09194461 -0.1933959 14.04742021 -0.10320189 16 0 C18.17146838 2.17146838 19.00321914 4.22485646 20.16162109 7.02954102 C23.35216893 14.52835045 27.44695311 21.66794422 31.2890625 28.84570312 C33.75969174 33.50276346 36.02434324 38.1808953 38.06274414 43.04394531 C39.0057414 45.01198232 40.09056914 46.6013835 41.4375 48.3125 C44.5020405 52.31342787 46.10437964 56.84407164 47.88671875 61.5234375 C48.74802976 64.13752806 48.74802976 64.13752806 51 65 C51.15275391 63.95779297 51.15275391 63.95779297 51.30859375 62.89453125 C52.11717006 59.50947448 53.46675713 56.77712981 55.0625 53.6875 C55.88427734 52.08455078 55.88427734 52.08455078 56.72265625 50.44921875 C57.14417969 49.64097656 57.56570313 48.83273437 58 48 C58.66 48 59.32 48 60 48 C60.17015625 47.43152344 60.3403125 46.86304688 60.515625 46.27734375 C62.47121321 40.04650686 65.10198699 35.03682082 68.5625 29.5 C69.97032341 27.05161147 71.0404308 24.56000964 72.1171875 21.953125 C73.48428196 18.92857973 75.16435483 16.08989137 76.8046875 13.20703125 C77.87622832 11.22853268 78.77797152 9.26940683 79.625 7.1875 C80.8503426 4.34693306 81.81646457 2.18353543 84 0 C85.32 0 86.64 0 88 0 C86.65279257 6.73603715 83.0877713 12.93093226 80 19 C79.34 19 78.68 19 78 19 C77.5359375 20.7325 77.5359375 20.7325 77.0625 22.5 C74.74223948 29.50497698 70.79857112 35.71733972 67.11474609 42.07128906 C65.54802704 44.78199439 64.01642899 47.51088129 62.5 50.25 C62.0359375 51.08015625 61.571875 51.9103125 61.09375 52.765625 C60.07129292 54.85435876 59.45855794 56.72805384 59 59 C58.34 59 57.68 59 57 59 C56.34 62.3 55.68 65.6 55 69 C54.34 69 53.68 69 53 69 C53 88.8 53 108.6 53 129 C48.05 129 43.1 129 38 129 C38.01160156 127.29126709 38.02320313 125.58253418 38.03515625 123.82202148 C38.06438443 118.11417932 38.05606128 112.40702061 38.02334595 106.69924831 C38.00487464 103.24541948 38.00049989 99.79288424 38.03076172 96.33911133 C38.31165034 74.32853069 38.31165034 74.32853069 29 55 C27.80925046 52.90936756 26.63855714 50.80700846 25.5 48.6875 C24.77296875 47.39392578 24.77296875 47.39392578 24.03125 46.07421875 C23 44 23 44 23 42 C22.34 42 21.68 42 21 42 C19.66180502 39.3773768 18.3292849 36.75213401 17 34.125 C16.6184375 33.37863281 16.236875 32.63226562 15.84375 31.86328125 C15.4828125 31.14785156 15.121875 30.43242188 14.75 29.6953125 C14.41484375 29.03547363 14.0796875 28.37563477 13.734375 27.69580078 C13 26 13 26 13 24 C12.34 24 11.68 24 11 24 C10.68546875 23.18015625 10.3709375 22.3603125 10.046875 21.515625 C9.61890625 20.43796875 9.1909375 19.3603125 8.75 18.25 C8.33234375 17.18265625 7.9146875 16.1153125 7.484375 15.015625 C5.99072825 11.98116371 4.47818338 10.25474062 2 8 C0.06470585 4.90352936 0 3.86069323 0 0 Z " fill="#131313" transform="translate(926,490)"/>
<path d="M0 0 C23.76 0 47.52 0 72 0 C72 1.32 72 2.64 72 4 C52.86 4 33.72 4 14 4 C14.04125 11.59 14.0825 19.18 14.125 27 C14.12258301 29.38089844 14.12016602 31.76179687 14.11767578 34.21484375 C14.14122033 36.12242607 14.1669548 38.02998316 14.1953125 39.9375 C14.1862085 40.91138672 14.17710449 41.88527344 14.16772461 42.88867188 C14.31016055 49.82407129 16.01633388 54.08633815 21 59 C24.10991396 60.55495698 27.43344049 60.24076956 30.8515625 60.31640625 C32.01261002 60.3475779 32.01261002 60.3475779 33.19711304 60.37937927 C35.67298392 60.44483448 38.14896202 60.50374087 40.625 60.5625 C42.30209448 60.60568907 43.97917807 60.64930348 45.65625 60.69335938 C49.77072308 60.80051171 53.88530414 60.90179045 58 61 C58 62.32 58 63.64 58 65 C56.49433472 65.029729 56.49433472 65.029729 54.95825195 65.06005859 C51.22135034 65.13633749 47.48482683 65.22501986 43.74829102 65.31738281 C42.1334583 65.35558072 40.51854316 65.39044945 38.90356445 65.421875 C36.57733783 65.46772609 34.25167408 65.52568584 31.92578125 65.5859375 C31.20787918 65.59748871 30.48997711 65.60903992 29.75032043 65.62094116 C25.76788398 65.73725239 22.54970027 66.13656369 19 68 C17.74172877 69.84982472 17.74172877 69.84982472 17 72 C16.65981842 72.60169006 16.31963684 73.20338013 15.96914673 73.82330322 C14.84224958 76.35430633 14.72389785 78.18793882 14.68115234 80.95214844 C14.66109131 81.94649902 14.64103027 82.94084961 14.62036133 83.96533203 C14.60900146 85.00286621 14.5976416 86.04040039 14.5859375 87.109375 C14.56829346 88.06859863 14.55064941 89.02782227 14.5324707 90.01611328 C14.4694794 93.59390605 14.42324043 97.17197794 14.375 100.75 C14.25125 108.7525 14.1275 116.755 14 125 C33.47 125 52.94 125 73 125 C73 126.32 73 127.64 73 129 C48.91 129 24.82 129 0 129 C-0.020625 122.4 -0.04125 115.8 -0.0625 109 C-0.071604 106.93234375 -0.08070801 104.8646875 -0.09008789 102.734375 C-0.09301188 101.07291732 -0.0955593 99.41145893 -0.09765625 97.75 C-0.10277222 96.90566406 -0.10788818 96.06132813 -0.11315918 95.19140625 C-0.11464422 84.97430955 0.82361909 78.67277089 8 71 C11.14604157 67.98878879 14.3772094 65.41519373 18 63 C17.443125 62.69449219 16.88625 62.38898437 16.3125 62.07421875 C8.99220253 57.68451334 3.82760598 51.65521197 0 44 C-0.08934406 42.58026727 -0.11758978 41.15642209 -0.11352539 39.73388672 C-0.11340454 38.84080811 -0.11328369 37.94772949 -0.11315918 37.02758789 C-0.10804321 36.08778076 -0.10292725 35.14797363 -0.09765625 34.1796875 C-0.09664917 33.31674072 -0.09564209 32.45379395 -0.09460449 31.56469727 C-0.08936435 28.3347847 -0.07540312 25.10489104 -0.0625 21.875 C-0.041875 14.65625 -0.02125 7.4375 0 0 Z " fill="#121212" transform="translate(174,490)"/>
<path d="M0 0 C3.79151583 -0.08829061 7.58276165 -0.14081946 11.375 -0.1875 C12.96634766 -0.22520508 12.96634766 -0.22520508 14.58984375 -0.26367188 C22.38319409 -0.33538982 29.81793963 0.17174764 36.4375 4.6484375 C39.41739246 7.94121867 41.76960117 10.63767689 43 15 C43.33773437 15.90878906 43.67546875 16.81757813 44.0234375 17.75390625 C46.46472215 25.86873643 45.82337527 34.48508999 42 42 C39.35232755 45.98515647 36.36190985 48.93383217 32 51 C31.01 51 30.02 51 29 51 C29 51.66 29 52.32 29 53 C25.2055474 54.19723186 21.52104674 54.20292115 17.5625 54.25 C16.26441406 54.27578125 14.96632813 54.3015625 13.62890625 54.328125 C8.54767109 53.8686807 6.11246131 52.23606812 2.75 48.5 C0.41267708 45.16096726 -0.12518248 42.68722539 -0.11352539 38.7121582 C-0.11344986 37.85149246 -0.11337433 36.99082672 -0.11329651 36.1040802 C-0.10813522 35.17899155 -0.10297394 34.25390289 -0.09765625 33.30078125 C-0.0962413 32.35059616 -0.09482635 31.40041107 -0.09336853 30.4214325 C-0.08776875 27.38508971 -0.07521632 24.34882052 -0.0625 21.3125 C-0.05748497 19.25455836 -0.05292207 17.19661556 -0.04882812 15.13867188 C-0.0377994 10.09241954 -0.02053493 5.04622225 0 0 Z " fill="#F8F8F8" transform="translate(80,494)"/>
<path d="M0 0 C2 1 2 1 2.8203125 2.859375 C3 5 3 5 1.7421875 6.640625 C1.12601563 7.17171875 0.50984375 7.7028125 -0.125 8.25 C-5.2326398 13.00081866 -8.69290648 18.40830424 -11 25 C-11.23460937 25.60585938 -11.46921875 26.21171875 -11.7109375 26.8359375 C-12.50354867 28.88417033 -13.28173951 30.92422717 -14 33 C-14.35449219 33.99773438 -14.70898438 34.99546875 -15.07421875 36.0234375 C-16.51451421 41.18071323 -16.32902788 46.43463321 -16.3125 51.75 C-16.32861328 52.7709375 -16.34472656 53.791875 -16.36132812 54.84375 C-16.3658913 62.0353125 -15.12367788 68.15757473 -13 75 C-12.73058594 76.15371094 -12.46117187 77.30742188 -12.18359375 78.49609375 C-9.8603473 87.65528002 -5.27867856 93.20539902 1 100 C2.2101364 101.47769191 3.41870581 102.95666989 4.625 104.4375 C8.60953289 108.96967011 13.27894786 112.09298262 19 114 C19 114.99 19 115.98 19 117 C11.06530282 118.61932596 4.11321001 116.63900642 -2.6484375 112.30078125 C-8.23987453 108.22335797 -13.32420572 104.10086649 -18 99 C-18.51046875 98.505 -19.0209375 98.01 -19.546875 97.5 C-24.10719198 92.79864229 -26.29077957 87.19250122 -28.703125 81.20703125 C-29.85106876 78.15619248 -29.85106876 78.15619248 -31.109375 76.07421875 C-36.55025936 63.40268543 -33.62779667 44.04362225 -29.15625 31.6640625 C-24.49910541 20.22194001 -17.06014869 9.01095037 -6 3 C-3.125 2.75 -3.125 2.75 -1 3 C-0.67 2.01 -0.34 1.02 0 0 Z " fill="#0C0C0C" transform="translate(707,498)"/>
<path d="M0 0 C12.21 0 24.42 0 37 0 C37 0.66 37 1.32 37 2 C28.75 2 20.5 2 12 2 C12.00512364 7.96135313 12.0285361 13.91702412 12.09765625 19.87719727 C12.11574085 21.90121886 12.12339854 23.92536316 12.12011719 25.94946289 C12.11723834 28.8722081 12.15277708 31.79244777 12.1953125 34.71484375 C12.1816716 36.05602516 12.1816716 36.05602516 12.16775513 37.42430115 C12.32167959 44.19099639 14.35919344 49.00551597 19 54 C21.09357315 55.24700143 21.09357315 55.24700143 23 56 C23 56.66 23 57.32 23 58 C28.28 58 33.56 58 39 58 C39.33 58.66 39.66 59.32 40 60 C38.37191406 60.03867187 38.37191406 60.03867187 36.7109375 60.078125 C35.26558651 60.13443738 33.82027556 60.191784 32.375 60.25 C31.66214844 60.26417969 30.94929688 60.27835938 30.21484375 60.29296875 C25.09069732 60.52802134 22.01762849 61.56947482 18 65 C13.03743562 70.54893563 13.39847246 75.97282047 13.390625 83.1796875 C13.37408875 84.3475882 13.35755249 85.51548889 13.34051514 86.71878052 C13.29205147 90.43757394 13.27066668 94.15595843 13.25 97.875 C13.22183913 100.40106222 13.19191155 102.92710541 13.16015625 105.453125 C13.08297681 111.63560453 13.04243792 117.81679435 13 124 C25.87 123.67 38.74 123.34 52 123 C51.505 124.485 51.505 124.485 51 126 C45.5000424 127.15683242 40.16023272 127.12791911 34.5703125 127.09765625 C33.084814 127.09553383 33.084814 127.09553383 31.56930542 127.09336853 C28.42117227 127.08779252 25.27311148 127.07524442 22.125 127.0625 C19.98437603 127.0574819 17.84375094 127.05291954 15.703125 127.04882812 C10.46872551 127.03783094 5.23436793 127.02111675 0 127 C-0.02543538 120.5770757 -0.04290272 114.15416447 -0.05493164 107.73120117 C-0.05994843 105.547928 -0.06676337 103.36465818 -0.07543945 101.18139648 C-0.08762147 98.03628717 -0.09325497 94.89122243 -0.09765625 91.74609375 C-0.10281754 90.7760289 -0.10797882 89.80596405 -0.11329651 88.8065033 C-0.11413171 78.6287092 0.78612047 72.62732322 8 65 C13.68445476 60 13.68445476 60 18 60 C18 59.34 18 58.68 18 58 C17.01 58 16.02 58 15 58 C15 57.34 15 56.68 15 56 C14.09894531 55.77054688 13.19789062 55.54109375 12.26953125 55.3046875 C8.50447542 53.80226379 7.12627468 52.31671676 4.6875 49.125 C3.67236328 47.82949219 3.67236328 47.82949219 2.63671875 46.5078125 C0.33682931 42.98387689 -0.12668274 40.0317458 -0.11352539 35.87402344 C-0.11344986 35.07349548 -0.11337433 34.27296753 -0.11329651 33.44818115 C-0.10813522 32.59387512 -0.10297394 31.73956909 -0.09765625 30.859375 C-0.0962413 29.97719299 -0.09482635 29.09501099 -0.09336853 28.18609619 C-0.08778001 25.37402935 -0.07522961 22.5620427 -0.0625 19.75 C-0.05748352 17.84114698 -0.05292087 15.93229272 -0.04882812 14.0234375 C-0.03866609 9.34890272 -0.01908842 4.67454093 0 0 Z " fill="#080808" transform="translate(67,491)"/>
<path d="M0 0 C4.29 0 8.58 0 13 0 C13 41.91 13 83.82 13 127 C8.71 127 4.42 127 0 127 C0 85.09 0 43.18 0 0 Z " fill="#040404" transform="translate(524,491)"/>
<path d="M0 0 C4.29 0 8.58 0 13 0 C13 41.91 13 83.82 13 127 C8.71 127 4.42 127 0 127 C0 85.09 0 43.18 0 0 Z " fill="#030303" transform="translate(425,491)"/>
<path d="M0 0 C3.96 0 7.92 0 12 0 C12 41.91 12 83.82 12 127 C8.04 127 4.08 127 0 127 C0 89.05 0 51.1 0 12 C-1.32 12.33 -2.64 12.66 -4 13 C-3.50269348 8.02693484 -2.44697666 4.36200187 0 0 Z " fill="#010101" transform="translate(383,491)"/>
<path d="M0 0 C12.87 0 25.74 0 39 0 C38.67 0.66 38.34 1.32 38 2 C29.75 2 21.5 2 13 2 C13.0178065 9.78109102 13.05684071 17.5614024 13.13209057 25.3421154 C13.1662176 28.95602405 13.19144798 32.56951642 13.19555664 36.18359375 C13.19987075 39.67884763 13.22858571 43.17316477 13.27343178 46.66812515 C13.29252695 48.63419897 13.28707976 50.60046257 13.28105164 52.56661987 C13.41108542 60.64618115 14.85245294 66.08657293 19 73 C19 73.33 19 73.66 19 74 C13.6608483 73.581243 10.80520584 72.80520584 7 69 C-0.12817349 60.24153866 -0.12817349 60.24153866 -0.11352539 53.35693359 C-0.11344986 52.17586029 -0.11337433 50.99478699 -0.11329651 49.77792358 C-0.10813522 48.49769318 -0.10297394 47.21746277 -0.09765625 45.8984375 C-0.0962413 44.59170074 -0.09482635 43.28496399 -0.09336853 41.93862915 C-0.08954894 38.46323742 -0.07972342 34.98788743 -0.06866455 31.51251221 C-0.05843843 27.96668065 -0.05381358 24.42084216 -0.04882812 20.875 C-0.03863122 13.91662979 -0.01905824 6.95837423 0 0 Z " fill="#0B0B0B" transform="translate(826,491)"/>
<path d="M0 0 C4.29 0 8.58 0 13 0 C13 42.57 13 85.14 13 129 C8.38 129 3.76 129 -1 129 C-1.33 92.04 -1.66 55.08 -2 17 C-4.4501518 21.90030359 -6.58265747 26.26142362 -8.4375 31.3125 C-9.99562977 35.46591953 -11.65645257 39.49496169 -13.5625 43.5 C-15.98669175 48.66855977 -17.58610483 53.94974087 -19.10546875 59.4453125 C-20 62 -20 62 -22 63 C-22.86024446 64.99260707 -23.63894061 67.02075564 -24.375 69.0625 C-26.04304518 73.55301458 -27.81792241 77.8083075 -30.03515625 82.046875 C-31.55304377 85.11952181 -32.75482447 88.30923771 -34 91.5 C-34.9385062 93.8462655 -35.94953811 96.13961461 -37 98.4375 C-39.29433939 103.51782294 -41.15290616 108.74364254 -43 114 C-43.99 113.34 -44.98 112.68 -46 112 C-46 110.68 -46 109.36 -46 108 C-46.66 107.67 -47.32 107.34 -48 107 C-47.67 105.68 -47.34 104.36 -47 103 C-47 103.99 -47 104.98 -47 106 C-46.01 106 -45.02 106 -44 106 C-43.938125 105.05125 -43.87625 104.1025 -43.8125 103.125 C-43.2102126 98.91735333 -41.41705519 95.70424565 -39.4453125 91.98046875 C-37.77101565 88.52779714 -36.47519338 84.98332377 -35.1875 81.375 C-32.86298624 74.92260217 -30.04457465 68.89275657 -26.90014648 62.80371094 C-23.77854285 56.70639407 -21.34762141 50.43265218 -19 44 C-16.92870687 38.58691795 -14.72420793 33.35646364 -12.07421875 28.203125 C-8.89064358 21.67390175 -6.23417973 14.9075098 -4 8 C-3.8453125 8.9590625 -3.8453125 8.9590625 -3.6875 9.9375 C-3.460625 10.618125 -3.23375 11.29875 -3 12 C-2.01 12.33 -1.02 12.66 0 13 C0 50.95 0 88.9 0 128 C3.96 128 7.92 128 12 128 C12 86.09 12 44.18 12 1 C8.04 1 4.08 1 0 1 C0 0.67 0 0.34 0 0 Z " fill="#464646" transform="translate(383,490)"/>
<path d="M0 0 C-0.90265107 4.64220549 -0.90265107 4.64220549 -1.52232361 6.91973877 C-2.00351891 9.01532471 -2.15653412 10.88750148 -2.20532227 13.03417969 C-2.22526749 13.81468689 -2.24521271 14.59519409 -2.26576233 15.39935303 C-2.29083107 16.6480014 -2.29083107 16.6480014 -2.31640625 17.921875 C-2.33718735 18.78186096 -2.35796844 19.64184692 -2.37937927 20.52789307 C-2.44463739 23.26851598 -2.50364917 26.00923275 -2.5625 28.75 C-2.60570781 30.6106867 -2.64932282 32.47136398 -2.69335938 34.33203125 C-2.80029442 38.88792523 -2.90162851 43.4439134 -3 48 C-7.95 48 -12.9 48 -18 48 C-18.09264509 44.05228995 -18.17201964 40.10740465 -18.21972656 36.15917969 C-18.24935477 34.16835522 -18.30022326 32.17788292 -18.3515625 30.1875 C-18.46518038 18.93933029 -16.5423453 10.85198159 -8.7421875 2.56640625 C-5.95000792 0.05594882 -3.56460506 -1.78230253 0 0 Z " fill="#191919" transform="translate(842,571)"/>
<path d="M0 0 C1.32 0 2.64 0 4 0 C3.37764466 4.00503965 2.08934322 7.17953183 0.3125 10.8125 C-2.696799 17.17749213 -5.19396117 23.64911988 -7.62109375 30.25390625 C-11.90380788 41.88881518 -11.90380788 41.88881518 -14.6875 47.25 C-16.09225398 50.19329406 -16.61606907 52.77498018 -17 56 C-17.66 56 -18.32 56 -19 56 C-19.27328125 56.83273437 -19.5465625 57.66546875 -19.828125 58.5234375 C-23.18113738 68.47070755 -26.84704089 78.00820078 -31.69140625 87.33203125 C-33.20070203 90.40919249 -34.27519114 93.4834082 -35.27734375 96.75390625 C-36.61855175 100.92252571 -38.33518404 104.95204648 -40 109 C-40.66 108.01 -41.32 107.02 -42 106 C-42.99 106 -43.98 106 -45 106 C-45 105.34 -45 104.68 -45 104 C-44.01 104 -43.02 104 -42 104 C-41.91363281 103.41734375 -41.82726562 102.8346875 -41.73828125 102.234375 C-40.50007916 95.00963622 -38.00118848 88.66676219 -35 82 C-34.34 82 -33.68 82 -33 82 C-32.89300781 81.15050781 -32.78601563 80.30101562 -32.67578125 79.42578125 C-31.94265252 75.70928475 -30.72159254 72.64794671 -29.1875 69.1875 C-28.91905273 68.57511475 -28.65060547 67.96272949 -28.37402344 67.33178711 C-27.19838737 64.65703906 -25.9973879 61.99427185 -24.78515625 59.3359375 C-22.78102844 54.93441906 -21.19756037 50.69044476 -20 46 C-19.34 46 -18.68 46 -18 46 C-17.90203125 45.38253906 -17.8040625 44.76507812 -17.703125 44.12890625 C-16.44792545 37.01971572 -14.17220986 31.10306307 -10.8046875 24.7421875 C-7.77987011 18.97791286 -5.60394205 13.2101731 -3.69946289 7.00146484 C-2.1993481 2.1993481 -2.1993481 2.1993481 0 0 Z " fill="#2A2A2A" transform="translate(664,490)"/>
<path d="M0 0 C1.32 0 2.64 0 4 0 C2.65279257 6.73603715 -0.9122287 12.93093226 -4 19 C-4.66 19 -5.32 19 -6 19 C-6.309375 20.155 -6.61875 21.31 -6.9375 22.5 C-9.2584118 29.50694326 -13.20381418 35.71650771 -16.88964844 42.07128906 C-18.44644821 44.77549271 -19.94595169 47.50937182 -21.4375 50.25 C-21.88996094 51.08015625 -22.34242188 51.9103125 -22.80859375 52.765625 C-23.9080864 54.82762434 -24.96654611 56.90425165 -26 59 C-26.495 57.515 -26.495 57.515 -27 56 C-28.485 56.495 -28.485 56.495 -30 57 C-28.80100302 53.9168649 -27.52299523 50.93720508 -26 48 C-25.34 48 -24.68 48 -24 48 C-23.82984375 47.43152344 -23.6596875 46.86304688 -23.484375 46.27734375 C-21.52878679 40.04650686 -18.89801301 35.03682082 -15.4375 29.5 C-14.02967659 27.05161147 -12.9595692 24.56000964 -11.8828125 21.953125 C-10.51571804 18.92857973 -8.83564517 16.08989137 -7.1953125 13.20703125 C-6.12377168 11.22853268 -5.22202848 9.26940683 -4.375 7.1875 C-3.1496574 4.34693306 -2.18353543 2.18353543 0 0 Z " fill="#1B1B1B" transform="translate(1010,490)"/>
<path d="M0 0 C2.14894039 2.14894039 4.20386295 4.24823875 6.13549805 6.6003418 C9.76592689 9.64163432 12.6093214 9.73114042 17.14453125 9.70703125 C17.91431808 9.72215256 18.68410492 9.73727386 19.47721863 9.75285339 C21.92261218 9.79565263 24.3667696 9.8045601 26.8125 9.8125 C28.47594414 9.83565061 30.13935902 9.86101713 31.80273438 9.88867188 C35.86859846 9.95144647 39.93369425 9.98384249 44 10 C44 11.32 44 12.64 44 14 C42.99622314 14.01981934 41.99244629 14.03963867 40.95825195 14.06005859 C37.22135034 14.13633749 33.48482683 14.22501986 29.74829102 14.31738281 C28.1334583 14.35558072 26.51854316 14.39044945 24.90356445 14.421875 C22.57733783 14.46772609 20.25167408 14.52568584 17.92578125 14.5859375 C16.84892815 14.60326431 16.84892815 14.60326431 15.75032043 14.62094116 C11.78603409 14.7367223 8.49111582 15.0381801 5 17 C4.67 17.99 4.34 18.98 4 20 C3.71125 19.360625 3.4225 18.72125 3.125 18.0625 C2.17176549 15.84793921 2.17176549 15.84793921 0 15 C1.32 14.01 2.64 13.02 4 12 C1.03 10.02 -1.94 8.04 -5 6 C-3.35 4.02 -1.7 2.04 0 0 Z " fill="#252525" transform="translate(188,541)"/>
<path d="M0 0 C1.37678881 4.13036644 -0.16043622 6.81911485 -1.6875 10.6875 C-1.9664209 11.41211426 -2.2453418 12.13672852 -2.53271484 12.88330078 C-4.17560211 17.09148114 -5.9477262 21.16153067 -8.0703125 25.15234375 C-9.59407705 28.18066574 -10.76844325 31.34413583 -12 34.5 C-12.9385062 36.8462655 -13.94953811 39.13961461 -15 41.4375 C-17.29433939 46.51782294 -19.15290616 51.74364254 -21 57 C-21.99 56.34 -22.98 55.68 -24 55 C-24 53.68 -24 52.36 -24 51 C-24.66 50.67 -25.32 50.34 -26 50 C-25.67 48.68 -25.34 47.36 -25 46 C-25 46.99 -25 47.98 -25 49 C-24.01 49 -23.02 49 -22 49 C-21.938125 48.05125 -21.87625 47.1025 -21.8125 46.125 C-21.21062697 41.92024814 -19.41985853 38.70934605 -17.44921875 34.98828125 C-15.75380076 31.49233849 -14.43499532 27.90169906 -13.125 24.25 C-5.69083835 3.79389223 -5.69083835 3.79389223 0 0 Z " fill="#232323" transform="translate(361,547)"/>
<path d="M0 0 C0.33 0.99 0.66 1.98 1 3 C0.01 4.485 0.01 4.485 -1 6 C-0.01 6.33 0.98 6.66 2 7 C2 6.34 2 5.68 2 5 C3.32 5.33 4.64 5.66 6 6 C4.35 7.32 2.7 8.64 1 10 C3.97 10.99 6.94 11.98 10 13 C6.93109813 14.53445094 4.29905734 13.54984289 1 13 C1 13.66 1 14.32 1 15 C-0.6396875 14.76990234 -0.6396875 14.76990234 -2.3125 14.53515625 C-7.52933947 13.88305132 -12.75005734 13.65835966 -18 13.4375 C-18.96550781 13.39431641 -19.93101563 13.35113281 -20.92578125 13.30664062 C-23.28374425 13.20158287 -25.64179416 13.09943086 -28 13 C-28 12.67 -28 12.34 -28 12 C-23.05 11.67 -18.1 11.34 -13 11 C-18.28 10.67 -23.56 10.34 -29 10 C-29 9.67 -29 9.34 -29 9 C-22.73 8.67 -16.46 8.34 -10 8 C-10 7.34 -10 6.68 -10 6 C-9.44570312 5.73445312 -8.89140625 5.46890625 -8.3203125 5.1953125 C-7.59585938 4.84210937 -6.87140625 4.48890625 -6.125 4.125 C-5.40570313 3.77695312 -4.68640625 3.42890625 -3.9453125 3.0703125 C-1.84864981 2.03442457 -1.84864981 2.03442457 0 0 Z " fill="#2D2D2D" transform="translate(119,539)"/>
<path d="M0 0 C1.32 0 2.64 0 4 0 C3.37764466 4.00503965 2.08934322 7.17953183 0.3125 10.8125 C-2.4271279 16.58082924 -4.73040367 22.40872065 -6.8190918 28.44262695 C-8.38392515 32.82427128 -10.30506201 36.2583157 -13 40 C-14.46804248 36.08522006 -14.15992445 31.95077299 -13 28 C-12.38769531 27.09121094 -11.77539062 26.18242188 -11.14453125 25.24609375 C-8.72959905 21.59070458 -7.32412434 18.04335229 -5.875 13.9375 C-5.37279342 12.55063721 -4.87019819 11.16391509 -4.3671875 9.77734375 C-4.13354492 9.12878418 -3.89990234 8.48022461 -3.65917969 7.81201172 C-1.28462516 1.28462516 -1.28462516 1.28462516 0 0 Z " fill="#242424" transform="translate(664,490)"/>
<path d="M0 0 C0.66 0.33 1.32 0.66 2 1 C0.68 1.33 -0.64 1.66 -2 2 C-2 2.66 -2 3.32 -2 4 C1.3 3.34 4.6 2.68 8 2 C7 4 7 4 4.25390625 5.0703125 C-9.89467752 9.112765 -23.59837853 9.16270903 -38 6 C-34.25 4 -34.25 4 -32 4 C-32 3.34 -32 2.68 -32 2 C-31.35546875 2.15984375 -30.7109375 2.3196875 -30.046875 2.484375 C-26.09697628 3.1528194 -22.25007306 3.23307153 -18.25 3.25 C-17.44884766 3.25394775 -16.64769531 3.25789551 -15.82226562 3.26196289 C-9.98166909 3.20434106 -5.42971835 2.23006289 0 0 Z " fill="#444444" transform="translate(758,611)"/>
<path d="M0 0 C3.96 0 7.92 0 12 0 C10.04967513 3.90064974 7.78167697 7.27326797 5.1875 10.75 C4.76146484 11.35199219 4.33542969 11.95398438 3.89648438 12.57421875 C2.60546875 14.296875 2.60546875 14.296875 0 17 C-2.82421875 17.390625 -2.82421875 17.390625 -5 17 C-4.34764863 10.96574986 -2.13299284 5.6421101 0 0 Z " fill="#131313" transform="translate(213,461)"/>
<path d="M0 0 C0.33 0 0.66 0 1 0 C1 37.29 1 74.58 1 113 C0.67 113 0.34 113 0 113 C-0.33 78.35 -0.66 43.7 -1 8 C-1.99 9.485 -1.99 9.485 -3 11 C-3.66 11 -4.32 11 -5 11 C-4.54917531 9.53932801 -4.08906463 8.08151968 -3.625 6.625 C-3.36976563 5.81289063 -3.11453125 5.00078125 -2.8515625 4.1640625 C-2 2 -2 2 0 0 Z " fill="#B4B4B4" transform="translate(381,506)"/>
<path d="M0 0 C0 0.33 0 0.66 0 1 C1.12019531 1.04898437 2.24039063 1.09796875 3.39453125 1.1484375 C4.86721203 1.22347856 6.33986707 1.29902582 7.8125 1.375 C8.55048828 1.4059375 9.28847656 1.436875 10.04882812 1.46875 C13.81893115 1.67346148 15.79650741 1.86433827 19 4 C18.39639648 3.97381592 17.79279297 3.94763184 17.17089844 3.9206543 C0.43153071 3.22696938 0.43153071 3.22696938 -15 9 C-16.33061601 9.67207385 -17.66299037 10.34073718 -19 11 C-19.99 10.01 -20.98 9.02 -22 8 C-22.33 8.66 -22.66 9.32 -23 10 C-24.32 9.67 -25.64 9.34 -27 9 C-23.93882432 6.37613513 -23.26826873 6 -19 6 C-19 5.34 -19 4.68 -19 4 C-12.44995746 1.30292366 -7.11513755 -0.53699151 0 0 Z " fill="#313131" transform="translate(729,491)"/>
<path d="M0 0 C0.68707555 2.49064888 1 4.37886292 1 7 C1.66 5.68 2.32 4.36 3 3 C3.33 3.66 3.66 4.32 4 5 C3.29296875 7.0234375 3.29296875 7.0234375 2.1875 9.375 C1.83042969 10.14585937 1.47335937 10.91671875 1.10546875 11.7109375 C0.39539906 13.18125848 -0.33729601 14.64098246 -1.09765625 16.0859375 C-2.30941566 18.65633625 -2.61814873 21.19975736 -3 24 C-3.66 24 -4.32 24 -5 24 C-5.66 25.98 -6.32 27.96 -7 30 C-7.99 29.67 -8.98 29.34 -10 29 C-9.52396226 26.87429688 -9.04407402 24.74945573 -8.5625 22.625 C-8.29566406 21.44164062 -8.02882813 20.25828125 -7.75390625 19.0390625 C-7 16 -7 16 -6 14 C-5.34 14 -4.68 14 -4 14 C-3.87882813 13.32453125 -3.75765625 12.6490625 -3.6328125 11.953125 C-3.38144531 10.61507812 -3.38144531 10.61507812 -3.125 9.25 C-2.96257813 8.36828125 -2.80015625 7.4865625 -2.6328125 6.578125 C-2.03203736 4.13052256 -1.22002883 2.19400143 0 0 Z " fill="#1B1B1B" transform="translate(650,522)"/>
<path d="M0 0 C4.59740643 0.03683819 8.53367656 0.90638773 12.9375 2.1875 C12.2775 4.1675 11.6175 6.1475 10.9375 8.1875 C10.33421875 7.98253906 9.7309375 7.77757812 9.109375 7.56640625 C8.31015625 7.29699219 7.5109375 7.02757812 6.6875 6.75 C5.89859375 6.48316406 5.1096875 6.21632813 4.296875 5.94140625 C-0.09093833 4.53934007 -3.94664404 4.01845905 -8.578125 3.87109375 C-9.82851563 3.82919922 -11.07890625 3.78730469 -12.3671875 3.74414062 C-13.66914062 3.70482422 -14.97109375 3.66550781 -16.3125 3.625 C-17.62992188 3.58181641 -18.94734375 3.53863281 -20.3046875 3.49414062 C-23.55718788 3.38808083 -26.80976392 3.28601976 -30.0625 3.1875 C-30.0625 2.8575 -30.0625 2.5275 -30.0625 2.1875 C-28.9343689 2.14991577 -28.9343689 2.14991577 -27.78344727 2.11157227 C-24.39710804 1.99599486 -21.01107387 1.87309655 -17.625 1.75 C-15.84899414 1.69102539 -15.84899414 1.69102539 -14.03710938 1.63085938 C-12.91240234 1.58896484 -11.78769531 1.54707031 -10.62890625 1.50390625 C-9.58677979 1.46724854 -8.54465332 1.43059082 -7.47094727 1.39282227 C-4.56897988 1.14542697 -3.12976137 0.02684186 0 0 Z " fill="#2B2B2B" transform="translate(869.0625,490.8125)"/>
<path d="M0 0 C0.625 1.8125 0.625 1.8125 1 4 C0.01 5.485 0.01 5.485 -1 7 C-0.34 7 0.32 7 1 7 C0.48681254 9.56593731 -0.29556706 11.65830844 -1.375 14.0625 C-3.50185238 18.86101423 -4.70648326 23.92684569 -6 29 C-6.66 29 -7.32 29 -8 29 C-8 27.68 -8 26.36 -8 25 C-8.66 25.33 -9.32 25.66 -10 26 C-8.53205356 19.95028134 -6.93686443 14.35554763 -3.984375 8.859375 C-2.46264806 5.98500189 -1.25032907 3.00078976 0 0 Z " fill="#2E2E2E" transform="translate(369,523)"/>
<path d="M0 0 C0.66 0.66 1.32 1.32 2 2 C1.66162929 7.32767999 0.15181579 11.9138961 -1.8125 16.8125 C-2.06064453 17.47958984 -2.30878906 18.14667969 -2.56445312 18.83398438 C-3.7313996 21.77658987 -4.5123985 23.67868534 -7.19921875 25.44921875 C-7.79347656 25.63097656 -8.38773437 25.81273437 -9 26 C-6.92775295 16.86327436 -4.27167164 8.35349121 0 0 Z " fill="#202020" transform="translate(377,504)"/>
<path d="M0 0 C1.625 1.5625 1.625 1.5625 3 4 C2.53190256 6.60054134 1.95275221 8.57025393 1 11 C0.65839844 11.88300781 0.31679688 12.76601563 -0.03515625 13.67578125 C-1.00227402 16.12650621 -1.99121485 18.5661834 -3 21 C-3.66 20.01 -4.32 19.02 -5 18 C-5.99 18 -6.98 18 -8 18 C-8 17.34 -8 16.68 -8 16 C-7.01 16 -6.02 16 -5 16 C-4.89042969 15.34773437 -4.78085937 14.69546875 -4.66796875 14.0234375 C-3.73491038 8.8802377 -2.65215917 4.58100221 0 0 Z " fill="#3C3C3C" transform="translate(627,578)"/>
<path d="M0 0 C0.91058531 3.07322544 1.08886184 5.80097361 1 9 C-4.39460953 11.27141454 -9.26157749 11.20413361 -15 11 C-15 10.67 -15 10.34 -15 10 C-13.02 10 -11.04 10 -9 10 C-9 9.34 -9 8.68 -9 8 C-10.32 7.34 -11.64 6.68 -13 6 C-12.14535156 5.65066406 -11.29070312 5.30132813 -10.41015625 4.94140625 C-9.30542969 4.48636719 -8.20070313 4.03132812 -7.0625 3.5625 C-5.96035156 3.11003906 -4.85820313 2.65757812 -3.72265625 2.19140625 C-1.13431084 1.25575392 -1.13431084 1.25575392 0 0 Z " fill="#2E2E2E" transform="translate(127,607)"/>
<path d="M0 0 C2.95929119 2.75520215 5.03681826 5.46627288 7 9 C6.34 9 5.68 9 5 9 C5.33 10.65 5.66 12.3 6 14 C4.02 14.66 2.04 15.32 0 16 C1 14 1 14 4 12 C1.03 10.02 -1.94 8.04 -5 6 C-3.35 4.02 -1.7 2.04 0 0 Z " fill="#2D2D2D" transform="translate(188,541)"/>
<path d="M0 0 C1.32 0 2.64 0 4 0 C3.05150753 4.74246236 1.44621549 9.55378451 -2 13 C-2.33 12.34 -2.66 11.68 -3 11 C-3.45375 11.825 -3.9075 12.65 -4.375 13.5 C-4.91125 14.325 -5.4475 15.15 -6 16 C-6.66 16 -7.32 16 -8 16 C-6.26901789 9.79379586 -4.26787643 4.89244371 0 0 Z " fill="#3F3F3F" transform="translate(1010,490)"/>
<path d="M0 0 C0.33 0.99 0.66 1.98 1 3 C0.34 2.67 -0.32 2.34 -1 2 C-0.67 1.34 -0.34 0.68 0 0 Z M-3 3 C-2.34 3 -1.68 3 -1 3 C-0.45669731 9.65545792 -1.22695996 13.45834744 -5 19 C-7 17 -7 17 -7.1875 14 C-7 11 -7 11 -6 9 C-5.34 9 -4.68 9 -4 9 C-3.67 7.02 -3.34 5.04 -3 3 Z " fill="#242424" transform="translate(635,563)"/>
<path d="M0 0 C0.33 0.99 0.66 1.98 1 3 C1.66 2.34 2.32 1.68 3 1 C3 4.95473153 2.3853608 7.1134279 1 10.75 C0.62875 11.73484375 0.2575 12.7196875 -0.125 13.734375 C-0.558125 14.85585938 -0.558125 14.85585938 -1 16 C-1.99 15.34 -2.98 14.68 -4 14 C-4 12.68 -4 11.36 -4 10 C-4.66 9.67 -5.32 9.34 -6 9 C-5.67 7.68 -5.34 6.36 -5 5 C-5 5.99 -5 6.98 -5 8 C-4.01 8 -3.02 8 -2 8 C-1.855625 6.865625 -1.71125 5.73125 -1.5625 4.5625 C-1 1 -1 1 0 0 Z " fill="#212121" transform="translate(341,588)"/>
<path d="M0 0 C-0.33 0.99 -0.66 1.98 -1 3 C-0.01 3.66 0.98 4.32 2 5 C0.35 5 -1.3 5 -3 5 C-2.67 5.99 -2.34 6.98 -2 8 C-2.99 8 -3.98 8 -5 8 C-5.33 6.68 -5.66 5.36 -6 4 C-12.93 4 -19.86 4 -27 4 C-27 3.67 -27 3.34 -27 3 C-25.2984375 2.92652344 -25.2984375 2.92652344 -23.5625 2.8515625 C-22.04164602 2.7764586 -20.52081375 2.70091416 -19 2.625 C-18.25621094 2.5940625 -17.51242187 2.563125 -16.74609375 2.53125 C-11.10883831 2.23713233 -5.49620896 0 0 0 Z " fill="#313131" transform="translate(876,562)"/>
<path d="M0 0 C0.6875 1.625 0.6875 1.625 1 4 C0.03685937 6.01800895 -0.96958573 8.01549844 -2 10 C-3.99347747 16.51348684 -4.41128358 22.71450369 -4.625 29.5 C-4.66367187 30.51320313 -4.70234375 31.52640625 -4.7421875 32.5703125 C-4.83563619 35.04670284 -4.92139873 37.52310151 -5 40 C-5.33 40 -5.66 40 -6 40 C-6.86597011 12.97507127 -6.86597011 12.97507127 -2 2 C-1.34 1.34 -0.68 0.68 0 0 Z " fill="#C0C0C0" transform="translate(696,522)"/>
<path d="M0 0 C0.33 0 0.66 0 1 0 C1 9.9 1 19.8 1 30 C0.67 30 0.34 30 0 30 C-0.33 22.74 -0.66 15.48 -1 8 C-1.99 9.485 -1.99 9.485 -3 11 C-3.66 11 -4.32 11 -5 11 C-4.54917531 9.53932801 -4.08906463 8.08151968 -3.625 6.625 C-3.36976563 5.81289063 -3.11453125 5.00078125 -2.8515625 4.1640625 C-2 2 -2 2 0 0 Z " fill="#B6B6B6" transform="translate(381,506)"/>
<path d="M0 0 C-0.33 0.99 -0.66 1.98 -1 3 C-4.27075883 3.0580476 -7.54138524 3.09361165 -10.8125 3.125 C-11.74126953 3.14175781 -12.67003906 3.15851562 -13.62695312 3.17578125 C-14.51962891 3.18222656 -15.41230469 3.18867187 -16.33203125 3.1953125 C-17.15421143 3.20578613 -17.9763916 3.21625977 -18.82348633 3.22705078 C-21 3 -21 3 -24 1 C-20.75008318 0.83168475 -17.50005436 0.66563638 -14.25 0.5 C-13.32960938 0.45230469 -12.40921875 0.40460937 -11.4609375 0.35546875 C-10.12675781 0.28779297 -10.12675781 0.28779297 -8.765625 0.21875 C-7.94868164 0.17685547 -7.13173828 0.13496094 -6.29003906 0.09179688 C-4.19481876 0.00780937 -2.09690296 0 0 0 Z " fill="#101010" transform="translate(755,615)"/>
<path d="M0 0 C0.33 0 0.66 0 1 0 C0.67 2.64 0.34 5.28 0 8 C-0.99 8.33 -1.98 8.66 -3 9 C-4.20882096 11.00016466 -4.20882096 11.00016466 -5 13 C-5 12.34 -5 11.68 -5 11 C-5.99 11.33 -6.98 11.66 -8 12 C-7.34 10.02 -6.68 8.04 -6 6 C-5.01 6 -4.02 6 -3 6 C-2.814375 5.071875 -2.814375 5.071875 -2.625 4.125 C-2 2 -2 2 0 0 Z " fill="#272727" transform="translate(1007,500)"/>
<path d="M0 0 C1.23593891 3.70781672 0.5678132 4.67510253 -0.9375 8.1875 C-1.31777344 9.08855469 -1.69804687 9.98960937 -2.08984375 10.91796875 C-2.54037109 11.94857422 -2.54037109 11.94857422 -3 13 C-3.99 13 -4.98 13 -6 13 C-5.09302326 5.13953488 -5.09302326 5.13953488 -3 2 C-2.01 1.34 -1.02 0.68 0 0 Z " fill="#181818" transform="translate(361,547)"/>
<path d="M0 0 C0.625 1.8125 0.625 1.8125 1 4 C0.01 5.485 0.01 5.485 -1 7 C-0.34 7 0.32 7 1 7 C0.37240135 9.92879371 -0.58622659 12.36095629 -2 15 C-2.33 14.01 -2.66 13.02 -3 12 C-3.33 12.99 -3.66 13.98 -4 15 C-4.66 15 -5.32 15 -6 15 C-5.731875 14.360625 -5.46375 13.72125 -5.1875 13.0625 C-3.88696131 9.70847918 -2.77825248 6.31639637 -1.68359375 2.890625 C-1 1 -1 1 0 0 Z " fill="#343434" transform="translate(369,523)"/>
<path d="M0 0 C1.32 0 2.64 0 4 0 C3.39009109 3.55780196 2.4216319 6.6828589 1 10 C-0.32 9.34 -1.64 8.68 -3 8 C-1.125 1.125 -1.125 1.125 0 0 Z " fill="#3D3D3D" transform="translate(664,490)"/>
<path d="M0 0 C0.99 0.33 1.98 0.66 3 1 C3.22036864 4.85645121 2.60355101 7.49223216 1 11 C0.34 10.01 -0.32 9.02 -1 8 C-1.99 8.33 -2.98 8.66 -4 9 C-2.80100302 5.9168649 -1.52299523 2.93720508 0 0 Z " fill="#353535" transform="translate(984,538)"/>
<path d="M0 0 C1.423125 0.495 1.423125 0.495 2.875 1 C5.77062452 2.10159191 5.77062452 2.10159191 8 2 C8 6 8 10 8 14 C5.79853175 11.79853175 4.96441604 9.667683 3.796875 6.8203125 C2.74194058 4.41051132 1.41045635 2.21643141 0 0 Z " fill="#D2D2D2" transform="translate(887,583)"/>
<path d="M0 0 C2.88766287 1.44383143 3.00718603 3.24857471 4.0625 6.25 C4.40410156 7.20390625 4.74570312 8.1578125 5.09765625 9.140625 C5.92253524 11.75452725 6.52272309 14.30363148 7 17 C3.7457985 14.16569547 2.4793247 12.31392226 2 8 C1.01 8.495 1.01 8.495 0 9 C0 6.03 0 3.06 0 0 Z " fill="#C9C9C9" transform="translate(601,588)"/>
<path d="M0 0 C0.68707555 2.49064888 1 4.37886292 1 7 C1.66 5.68 2.32 4.36 3 3 C3.33 3.66 3.66 4.32 4 5 C3.06421005 7.35981813 2.06652192 9.69631264 1 12 C0.34 12 -0.32 12 -1 12 C-2.1875 9.9375 -2.1875 9.9375 -3 7 C-2.27873258 4.45187276 -1.21291073 2.37917104 0 0 Z " fill="#535353" transform="translate(650,522)"/>
<path d="M0 0 C1.32 0 2.64 0 4 0 C3.4376049 3.26189156 2.5859495 4.91134848 0 7 C-0.99 7.33 -1.98 7.66 -3 8 C-2.25 2.25 -2.25 2.25 0 0 Z " fill="#2C2C2C" transform="translate(1010,490)"/>
<path d="M0 0 C2 3 2 3 1.875 5.4375 C0.83150327 8.49345471 -0.7058195 9.77751264 -3 12 C-3.7872678 14.1381966 -3.7872678 14.1381966 -4 16 C-4.66 16 -5.32 16 -6 16 C-4.73130765 10.07943568 -2.86034565 5.33931188 0 0 Z " fill="#D1D1D1" transform="translate(635,570)"/>
<path d="M0 0 C0.66 0 1.32 0 2 0 C2 0.99 2 1.98 2 3 C2.99 3.33 3.98 3.66 5 4 C0.375 7 0.375 7 -3 7 C-3.33 6.34 -3.66 5.68 -4 5 C-4.99 5 -5.98 5 -7 5 C-5 3 -5 3 -2.9375 2.5 C-2.298125 2.335 -1.65875 2.17 -1 2 C-0.67 1.34 -0.34 0.68 0 0 Z " fill="#292929" transform="translate(844,566)"/>
<path d="M0 0 C0.33 0.66 0.66 1.32 1 2 C1.99 2.33 2.98 2.66 4 3 C3.67 4.65 3.34 6.3 3 8 C1.35 8 -0.3 8 -2 8 C-1.125 2.25 -1.125 2.25 0 0 Z " fill="#232323" transform="translate(210,470)"/>
<path d="M0 0 C0.66 0 1.32 0 2 0 C1.56179109 4.55737263 1.14958831 7.57653445 -2 11 C-2.92817192 7.37169157 -3.26901295 5.58926645 -1.6875 2.125 C-0.8521875 1.073125 -0.8521875 1.073125 0 0 Z " fill="#121212" transform="translate(989,531)"/>
<path d="M0 0 C0.144375 0.598125 0.28875 1.19625 0.4375 1.8125 C0.8872439 3.56150404 1.42892341 5.28677023 2 7 C1.40206327 9.35188447 0.74118205 11.68925595 0 14 C-0.33 14 -0.66 14 -1 14 C-1.144375 13.21625 -1.28875 12.4325 -1.4375 11.625 C-1.87798925 9.03578982 -1.87798925 9.03578982 -3 7 C-2.06421005 4.64018187 -1.06652192 2.30368736 0 0 Z " fill="#303030" transform="translate(640,547)"/>
<path d="M0 0 C0.99 0.33 1.98 0.66 3 1 C2.49339844 1.79664063 2.49339844 1.79664063 1.9765625 2.609375 C1.30753906 3.66898438 1.30753906 3.66898438 0.625 4.75 C0.18414063 5.44609375 -0.25671875 6.1421875 -0.7109375 6.859375 C-1.91880906 8.86517383 -2.98387737 10.89178296 -4 13 C-3.91266424 11.39482903 -3.80447776 9.79078338 -3.6875 8.1875 C-3.62949219 7.29417969 -3.57148437 6.40085937 -3.51171875 5.48046875 C-2.93686419 2.69396 -2.1793144 1.75864246 0 0 Z " fill="#E2E2E2" transform="translate(683,515)"/>
<path d="M0 0 C1.625 1.5625 1.625 1.5625 3 4 C2.1875 7.75 2.1875 7.75 1 11 C0 9 0 9 0 6 C-0.33 6.66 -0.66 7.32 -1 8 C-1.66 8 -2.32 8 -3 8 C-1.125 1.125 -1.125 1.125 0 0 Z " fill="#4A4A4A" transform="translate(627,578)"/>
<path d="M0 0 C4.875 2.75 4.875 2.75 6 5 C8.52733235 5.65555119 8.52733235 5.65555119 11 6 C11 6.33 11 6.66 11 7 C8.03 7 5.06 7 2 7 C2 6.01 2 5.02 2 4 C0.68 3.67 -0.64 3.34 -2 3 C-1.34 2.67 -0.68 2.34 0 2 C0 1.34 0 0.68 0 0 Z " fill="#161616" transform="translate(844,562)"/>
<path d="M0 0 C1.98 0.99 3.96 1.98 6 3 C6 3.66 6 4.32 6 5 C5.34 5 4.68 5 4 5 C4 7.31 4 9.62 4 12 C2.09681116 9.14521674 1.5380901 7.58058692 0.875 4.3125 C0.70742188 3.50425781 0.53984375 2.69601562 0.3671875 1.86328125 C0.24601563 1.24839844 0.12484375 0.63351562 0 0 Z " fill="#CBCBCB" transform="translate(602,550)"/>
<path d="M0 0 C1.32 0.33 2.64 0.66 4 1 C3.67 2.65 3.34 4.3 3 6 C1.02 5.34 -0.96 4.68 -3 4 C-2.01 2.68 -1.02 1.36 0 0 Z " fill="#D7D7D7" transform="translate(715,498)"/>
<path d="M0 0 C0.33 1.32 0.66 2.64 1 4 C0.01 4.33 -0.98 4.66 -2 5 C-1.67 5.99 -1.34 6.98 -1 8 C-4.75 11 -4.75 11 -7 11 C-5.22054913 6.95579349 -2.60470327 3.53921513 0 0 Z " fill="#BEBEBE" transform="translate(793,588)"/>
<path d="M0 0 C0.33 0.99 0.66 1.98 1 3 C1.66 2.34 2.32 1.68 3 1 C3 4.79557881 2.49821059 6.62902617 1 10 C0.01 9.34 -0.98 8.68 -2 8 C-1.125 1.125 -1.125 1.125 0 0 Z " fill="#363636" transform="translate(341,588)"/>
<path d="M0 0 C0.93423645 3.01031744 1.04449911 3.86650268 0 7 C-0.66 7 -1.32 7 -2 7 C-2 7.99 -2 8.98 -2 10 C-2.66 10 -3.32 10 -4 10 C-3.67 7.69 -3.34 5.38 -3 3 C-2.34 3 -1.68 3 -1 3 C-0.67 2.01 -0.34 1.02 0 0 Z " fill="#111111" transform="translate(627,583)"/>
<path d="M0 0 C0.93423645 3.01031744 1.04449911 3.86650268 0 7 C-1.65 7 -3.3 7 -5 7 C-3.75023244 3.34683329 -3.32901247 2.21934164 0 0 Z " fill="#1D1D1D" transform="translate(983,545)"/>
<path d="M0 0 C0.33 0.99 0.66 1.98 1 3 C-0.38576883 5.47979686 -1.31249159 6.74218435 -4 7.75 C-6 8 -6 8 -9 8 C-6.03 5.36 -3.06 2.72 0 0 Z " fill="#C7C7C7" transform="translate(134,536)"/>
<path d="M0 0 C0.66 0.33 1.32 0.66 2 1 C1.04882866 2.1725131 0.08882991 3.33787015 -0.875 4.5 C-1.40867187 5.1496875 -1.94234375 5.799375 -2.4921875 6.46875 C-2.98976563 6.9740625 -3.48734375 7.479375 -4 8 C-4.66 8 -5.32 8 -6 8 C-6 8.66 -6 9.32 -6 10 C-6.66 9.67 -7.32 9.34 -8 9 C-6.85459775 7.68712379 -5.70866567 6.37470979 -4.5625 5.0625 C-3.92441406 4.33160156 -3.28632812 3.60070312 -2.62890625 2.84765625 C-1.77458541 1.87860647 -0.91348825 0.91348825 0 0 Z " fill="#4A4A4A" transform="translate(695,505)"/>
<path d="M0 0 C0.66 0.33 1.32 0.66 2 1 C2.5 3.1875 2.5 3.1875 2 6 C-0.48053942 8.01271839 -3.17640062 9.51887086 -6 11 C-6 10.01 -6 9.02 -6 8 C-5.34 8 -4.68 8 -4 8 C-4 7.34 -4 6.68 -4 6 C-2.35 5.67 -0.7 5.34 1 5 C0.67 3.35 0.34 1.7 0 0 Z " fill="#ABABAB" transform="translate(624,605)"/>
<path d="M0 0 C1.125 1.75 1.125 1.75 2 4 C1.3125 6.1875 1.3125 6.1875 0 8 C-0.99 8.33 -1.98 8.66 -3 9 C-2.5020163 5.26512223 -2.12508244 3.18762365 0 0 Z " fill="#171717" transform="translate(648,530)"/>
<path d="M0 0 C0.66 0 1.32 0 2 0 C2.32613618 4.67461851 1.70582788 7.16674383 -1 11 C-2.60080151 6.99799622 -1.29279692 3.95443764 0 0 Z " fill="#0A0A0A" transform="translate(652,519)"/>
<path d="M0 0 C0.33 0 0.66 0 1 0 C0.75 3.375 0.75 3.375 0 7 C-2.0625 8.4375 -2.0625 8.4375 -4 9 C-2.25 2.25 -2.25 2.25 0 0 Z " fill="#191919" transform="translate(372,521)"/>
<path d="M0 0 C0.66 0 1.32 0 2 0 C2.25532751 3.06393013 2.21861333 4.63233212 0.625 7.3125 C-0.179375 8.1478125 -0.179375 8.1478125 -1 9 C-1.66 9 -2.32 9 -3 9 C-2.01 6.03 -1.02 3.06 0 0 Z " fill="#C5C5C5" transform="translate(379,508)"/>
<path d="M0 0 C0.66 0.33 1.32 0.66 2 1 C1 2.9375 1 2.9375 -1 5 C-3.69924572 5.66549451 -6.20631637 5.81680763 -9 6 C-7.73295613 3.46591226 -6.56876843 3.06790028 -4.0625 1.8125 C-3.35222656 1.44769531 -2.64195312 1.08289063 -1.91015625 0.70703125 C-1.27980469 0.47371094 -0.64945313 0.24039063 0 0 Z " fill="#ADADAD" transform="translate(139,609)"/>
<path d="M0 0 C-0.75 4.75 -0.75 4.75 -3 7 C-3 6.01 -3 5.02 -3 4 C-3.99 4.33 -4.98 4.66 -6 5 C-3.74193548 0 -3.74193548 0 0 0 Z " fill="#242424" transform="translate(994,527)"/>
<path d="M0 0 C-0.33 0.99 -0.66 1.98 -1 3 C-3.97 2.67 -6.94 2.34 -10 2 C-10 1.67 -10 1.34 -10 1 C-6.59437148 0.22157062 -3.49234244 -0.09978121 0 0 Z " fill="#0B0B0B" transform="translate(119,614)"/>
<path d="M0 0 C2.97 0.495 2.97 0.495 6 1 C6 2.65 6 4.3 6 6 C3.96166576 4.7260411 1.96147874 3.38938077 0 2 C0 1.34 0 0.68 0 0 Z " fill="#BDBDBD" transform="translate(873,567)"/>
<path d="M0 0 C0.66 0 1.32 0 2 0 C2.33 2.97 2.66 5.94 3 9 C0.86928411 6.40608501 -0.53582673 4.36525621 -1 1 C-0.67 0.67 -0.34 0.34 0 0 Z " fill="#EDEDED" transform="translate(314,545)"/>
<path d="M0 0 C0.99 0.495 0.99 0.495 2 1 C2 1.99 2 2.98 2 4 C2.66 4 3.32 4 4 4 C4 4.66 4 5.32 4 6 C4.99 6 5.98 6 7 6 C6.34 7.32 5.68 8.64 5 10 C2.08772731 6.71195019 0.50298788 4.40114397 0 0 Z " fill="#ABABAB" transform="translate(696,581)"/>
<path d="M0 0 C0.99 0.33 1.98 0.66 3 1 C2.74438677 3.3431213 2.40729228 5.67843403 2 8 C1.01 8.495 1.01 8.495 0 9 C0 7.68 0 6.36 0 5 C-0.33 4.67 -0.66 4.34 -1 4 C-0.5625 1.9375 -0.5625 1.9375 0 0 Z " fill="#323232" transform="translate(354,558)"/>
<path d="M0 0 C-0.33 1.65 -0.66 3.3 -1 5 C-3.97 4.505 -3.97 4.505 -7 4 C-2.25 0 -2.25 0 0 0 Z " fill="#DCDCDC" transform="translate(125,545)"/>
<path d="M0 0 C1.32 0.66 2.64 1.32 4 2 C3.67 4.64 3.34 7.28 3 10 C2.34 10 1.68 10 1 10 C1.33 8.02 1.66 6.04 2 4 C1.01 4 0.02 4 -1 4 C-0.67 2.68 -0.34 1.36 0 0 Z " fill="#5C5C5C" transform="translate(644,536)"/>
<path d="M0 0 C1.5 1.0625 1.5 1.0625 3 3 C3.1875 6.6875 3.1875 6.6875 3 10 C0.38952199 8.694761 0.31933577 7.64173426 -0.625 4.9375 C-0.88539063 4.20402344 -1.14578125 3.47054687 -1.4140625 2.71484375 C-1.60742188 2.14894531 -1.80078125 1.58304688 -2 1 C-1.34 0.67 -0.68 0.34 0 0 Z " fill="#D1D1D1" transform="translate(795,518)"/>
<path d="M0 0 C-0.804375 0.28875 -1.60875 0.5775 -2.4375 0.875 C-5.1326468 1.73262568 -5.1326468 1.73262568 -6 4 C-5.34 4.33 -4.68 4.66 -4 5 C-5.32 5.33 -6.64 5.66 -8 6 C-7.67 4.68 -7.34 3.36 -7 2 C-7.66 1.67 -8.32 1.34 -9 1 C-5.57367167 -0.61798838 -3.61944899 -1.34053666 0 0 Z " fill="#525252" transform="translate(725,492)"/>
<path d="M0 0 C3.3 0.33 6.6 0.66 10 1 C9.34 1.66 8.68 2.32 8 3 C4.4375 2.75 4.4375 2.75 1 2 C0.67 1.34 0.34 0.68 0 0 Z " fill="#020202" transform="translate(867,492)"/>
<path d="M0 0 C-0.33 1.32 -0.66 2.64 -1 4 C-2.32 4.33 -3.64 4.66 -5 5 C-5 4.01 -5 3.02 -5 2 C-2 0 -2 0 0 0 Z " fill="#070707" transform="translate(718,494)"/>
<path d="M0 0 C0.99 0.495 0.99 0.495 2 1 C2.73075648 3.3140622 3.40138258 5.64828869 4 8 C2.68 8.33 1.36 8.66 0 9 C0 6.03 0 3.06 0 0 Z " fill="#BBBBBB" transform="translate(601,588)"/>
<path d="M0 0 C0.33 0.99 0.66 1.98 1 3 C1.66 3 2.32 3 3 3 C3.33 4.65 3.66 6.3 4 8 C2.68 7.67 1.36 7.34 0 7 C0 4.69 0 2.38 0 0 Z " fill="#C7C7C7" transform="translate(596,576)"/>
<path d="M0 0 C1 2 1 2 0.0625 5.125 C-0.288125 6.07375 -0.63875 7.0225 -1 8 C-1.66 8 -2.32 8 -3 8 C-2.45276317 4.62537285 -1.9451 2.91765 0 0 Z " fill="#525252" transform="translate(178,566)"/>
<path d="M0 0 C0.33 0.99 0.66 1.98 1 3 C1.99 3 2.98 3 4 3 C4.33 5.31 4.66 7.62 5 10 C2.17970072 8.58985036 1.41850081 6.77252431 0 4 C0 2.68 0 1.36 0 0 Z " fill="#727272" transform="translate(302,557)"/>
</svg>
